<svg xmlns="http://www.w3.org/2000/svg" viewBox="0 0 349.98 212.44"><defs><style>.cls-1,.cls-2,.cls-3{fill:#fff;stroke-width:3.79px;}.cls-1,.cls-2{stroke:#131431;}.cls-1,.cls-3{stroke-linecap:round;stroke-linejoin:round;}.cls-2{stroke-miterlimit:10;}.cls-3{stroke:#009b8e;}.cls-4{fill:#006d61;}</style></defs><g id="Layer_2" data-name="Layer 2"><g id="Layer_1-2" data-name="Layer 1"><path class="cls-1" d="M329.34,210.55H20.65c-10.36,0-18.75.14-18.75-10.22V189H348.09v11.36C348.09,210.69,339.69,210.55,329.34,210.55Z"/><path class="cls-2" d="M44,1.9H306A10.31,10.31,0,0,1,316.26,12.2V171.76a0,0,0,0,1,0,0H33.73a0,0,0,0,1,0,0V12.2A10.31,10.31,0,0,1,44,1.9Z"/><rect class="cls-3" x="46.78" y="16.76" width="256.88" height="143.15"/><circle class="cls-4" cx="170.14" cy="9.41" r="3.1"/><polygon class="cls-1" points="1.9 188.97 33.73 171.76 316.25 171.76 348.09 188.97 1.9 188.97"/></g></g></svg>