<svg xmlns="http://www.w3.org/2000/svg" viewBox="0 0 283.58 183.72"><defs><style>.cls-1,.cls-3{fill:#fff;}.cls-1,.cls-4{stroke:#131431;stroke-width:4px;}.cls-1{stroke-linecap:round;stroke-linejoin:round;}.cls-2{fill:#06a64f;}.cls-3{stroke:#009b8e;stroke-width:24.57px;stroke-dasharray:5.17 31.04;}.cls-3,.cls-4{stroke-miterlimit:10;}.cls-4{fill:none;}</style></defs><g id="Layer_2" data-name="Layer 2"><g id="Layer_1-2" data-name="Layer 1"><path class="cls-1" d="M279.76,174.17A141.57,141.57,0,0,0,281.51,147c-2.37-74.71-64-134.73-138.71-135.25a139.93,139.93,0,0,0-139,162.42,9,9,0,0,0,8.88,7.53H270.88A9,9,0,0,0,279.76,174.17Z"/><line class="cls-2" x1="225.72" x2="225.95"/><path class="cls-3" d="M33.53,152a109.12,109.12,0,0,1,218.24,0"/><path class="cls-4" d="M141.18,71.38a.62.62,0,0,1,1.22,0l12.73,73.21a13.63,13.63,0,0,1-13.34,16.46h0a13.63,13.63,0,0,1-13.34-16.46Z"/><circle class="cls-4" cx="82.36" cy="148.06" r="7.75"/><circle class="cls-4" cx="205.02" cy="148.06" r="7.75"/></g></g></svg>